<?xml version="1.0" encoding="UTF-8" standalone="no"?>
<!-- Generator: Adobe Illustrator 23.0.3, SVG Export Plug-In . SVG Version: 6.00 Build 0)  -->

<svg
   version="1.1"
   id="Layer_1"
   inkscape:version="1.3.2 (091e20e, 2023-11-25, custom)"
   sodipodi:docname="uni0384_Tonos.svg"
   x="0px"
   y="0px"
   viewBox="0 0 1000 1000"
   style="enable-background:new 0 0 1000 1000;"
   xml:space="preserve"
   inkscape:export-filename="uni0384_Tonos.png"
   inkscape:export-xdpi="96"
   inkscape:export-ydpi="96"
   xmlns:inkscape="http://www.inkscape.org/namespaces/inkscape"
   xmlns:sodipodi="http://sodipodi.sourceforge.net/DTD/sodipodi-0.dtd"
   xmlns="http://www.w3.org/2000/svg"
   xmlns:svg="http://www.w3.org/2000/svg">
<style
   type="text/css"
   id="style1">
	.st0{fill:#A91E22;}
	.st1{fill:none;}
	.st2{fill:#FFFFFF;}
	.st3{font-family:'Sabrina-Regular';}
	.st4{font-size:48px;}
	.st5{fill:#676767;}
</style>
<rect
   id="rect1"
   x="268.8"
   y="808.1"
   class="st0"
   width="465.7"
   height="191.9" />
<defs
   id="defs1">
	
	<inkscape:perspective
   id="perspective3730" />
</defs>
<sodipodi:namedview
   bordercolor="#666666"
   borderopacity="1.0"
   id="base"
   inkscape:current-layer="Layer_1"
   inkscape:cx="500"
   inkscape:cy="500"
   inkscape:deskcolor="#d1d1d1"
   inkscape:pagecheckerboard="0"
   inkscape:pageopacity="0.0"
   inkscape:showpageshadow="2"
   inkscape:window-height="991"
   inkscape:window-maximized="1"
   inkscape:window-width="1920"
   inkscape:window-x="-9"
   inkscape:window-y="-9"
   inkscape:zoom="0.782"
   pagecolor="#ffffff"
   showgrid="false">
	</sodipodi:namedview>
<rect
   id="rect3"
   x="234.3"
   y="845.9"
   class="st1"
   width="465.7"
   height="110.3" />
<text
   id="text1"
   transform="matrix(1 0 0 1 415.4916 879.9305)"
   class="st2 st3 st4">uni0384</text>
<text
   id="text2"
   transform="matrix(1 0 0 1 442.3953 937.5305)"
   class="st2 st3 st4">tonos</text>
<g
   id="g14">
	<g
   id="g2"
   transform="matrix(1,0,0,1,0,0)">
		<path
   id="path2"
   vector-effect="none"
   class="st5"
   d="M464.1,371.9c0,15.6,12.6,28.2,28.2,28.2s28.2-12.6,28.2-28.2    s-12.6-28.2-28.2-28.2S464.1,356.3,464.1,371.9" />
	</g>
	<g
   id="g3"
   transform="matrix(1,0,0,1,0,0)">
		<path
   id="path3"
   vector-effect="none"
   class="st5"
   d="M568.3,398.3c0,15.6,12.6,28.2,28.2,28.2c15.6,0,28.2-12.6,28.2-28.2    s-12.6-28.2-28.2-28.2C580.9,370.1,568.3,382.7,568.3,398.3" />
	</g>
	<g
   id="g4"
   transform="matrix(1,0,0,1,0,0)">
		<path
   id="path4"
   vector-effect="none"
   class="st5"
   d="M626.1,464.3c0,15.6,12.6,28.2,28.2,28.2s28.2-12.6,28.2-28.2    s-12.6-28.2-28.2-28.2S626.1,448.7,626.1,464.3" />
	</g>
	<g
   id="g5"
   transform="matrix(1,0,0,1,0,0)">
		<path
   id="path5"
   vector-effect="none"
   class="st5"
   d="M646.3,553.8c0,15.6,12.6,28.2,28.2,28.2c15.6,0,28.2-12.6,28.2-28.2    c0-15.6-12.6-28.2-28.2-28.2C658.9,525.7,646.3,538.3,646.3,553.8" />
	</g>
	<g
   id="g6"
   transform="matrix(1,0,0,1,0,0)">
		<path
   id="path6"
   vector-effect="none"
   class="st5"
   d="M626.1,640.7c0,15.6,12.6,28.2,28.2,28.2s28.2-12.6,28.2-28.2    c0-15.6-12.6-28.2-28.2-28.2S626.1,625.1,626.1,640.7" />
	</g>
	<g
   id="g7"
   transform="matrix(1,0,0,1,0,0)">
		<path
   id="path7"
   vector-effect="none"
   class="st5"
   d="M568.3,705.2c0,15.6,12.6,28.2,28.2,28.2c15.6,0,28.2-12.6,28.2-28.2    S612.1,677,596.5,677S568.3,689.6,568.3,705.2" />
	</g>
	<g
   id="g8"
   transform="matrix(1,0,0,1,0,0)">
		<path
   id="path8"
   vector-effect="none"
   class="st5"
   d="M464.1,735.8c0,15.6,12.6,28.2,28.2,28.2s28.2-12.6,28.2-28.2    c0-15.6-12.6-28.2-28.2-28.2S464.1,720.2,464.1,735.8" />
	</g>
	<g
   id="g9"
   transform="matrix(1,0,0,1,0,0)">
		<path
   id="path9"
   vector-effect="none"
   class="st5"
   d="M363.6,705.2c0,15.6,12.6,28.2,28.2,28.2s28.2-12.6,28.2-28.2    S407.4,677,391.8,677S363.6,689.6,363.6,705.2" />
	</g>
	<g
   id="g10"
   transform="matrix(1,0,0,1,0,0)">
		<path
   id="path10"
   vector-effect="none"
   class="st5"
   d="M301.8,640.7c0,15.6,12.6,28.2,28.2,28.2s28.2-12.6,28.2-28.2    c0-15.6-12.6-28.2-28.2-28.2S301.8,625.1,301.8,640.7" />
	</g>
	<g
   id="g11"
   transform="matrix(1,0,0,1,0,0)">
		<path
   id="path11"
   vector-effect="none"
   class="st5"
   d="M282.4,553.8c0,15.6,12.6,28.2,28.2,28.2s28.2-12.6,28.2-28.2    c0-15.6-12.6-28.2-28.2-28.2C295,525.7,282.4,538.3,282.4,553.8" />
	</g>
	<g
   id="g12"
   transform="matrix(1,0,0,1,0,0)">
		<path
   id="path12"
   vector-effect="none"
   class="st5"
   d="M301.8,464.3c0,15.6,12.6,28.2,28.2,28.2s28.2-12.6,28.2-28.2    s-12.6-28.2-28.2-28.2C314.4,436.1,301.8,448.7,301.8,464.3" />
	</g>
	<g
   id="g13"
   transform="matrix(1,0,0,1,0,0)">
		<path
   id="path13"
   vector-effect="none"
   class="st5"
   d="M363.6,398.3c0,15.6,12.6,28.2,28.2,28.2s28.2-12.6,28.2-28.2    s-12.6-28.2-28.2-28.2S363.6,382.7,363.6,398.3" />
	</g>
</g>
<g
   transform="matrix(1,0,0,1,0,0)"
   id="g1">
	<path
   vector-effect="none"
   class="st0"
   d="M444.3,254c4,0,9-4,12-8l92-122c3.9-5.1,6-13,6-18c0-20-22-35-42-35c-13,0-24,6-28,17   l-52,143c-1.1,3-2,7-2,10C430.3,248,436.3,254,444.3,254"
   id="path1" />
</g>
</svg>
