<?xml version="1.0" encoding="UTF-8" standalone="no"?>
<!-- Generator: Adobe Illustrator 23.0.3, SVG Export Plug-In . SVG Version: 6.00 Build 0)  -->

<svg
   version="1.1"
   id="Layer_1"
   inkscape:version="1.3.2 (091e20e, 2023-11-25, custom)"
   sodipodi:docname="uni03AC_alphatonos.svg"
   x="0px"
   y="0px"
   viewBox="0 0 1000 1000"
   style="enable-background:new 0 0 1000 1000;"
   xml:space="preserve"
   inkscape:export-filename="uni03AC_alphatonos.png"
   inkscape:export-xdpi="96"
   inkscape:export-ydpi="96"
   xmlns:inkscape="http://www.inkscape.org/namespaces/inkscape"
   xmlns:sodipodi="http://sodipodi.sourceforge.net/DTD/sodipodi-0.dtd"
   xmlns="http://www.w3.org/2000/svg"
   xmlns:svg="http://www.w3.org/2000/svg">
<style
   type="text/css"
   id="style1">
	.st0{fill:#A91E22;}
	.st1{fill:none;}
	.st2{fill:#FFFFFF;}
	.st3{font-family:'Sabrina-Regular';}
	.st4{font-size:48px;}
	.st5{fill:#676767;}
</style>
<rect
   id="rect1"
   x="268.8"
   y="808.1"
   class="st0"
   width="465.7"
   height="191.9" />
<defs
   id="defs1">
	
	<inkscape:perspective
   id="perspective3730" />
</defs>
<sodipodi:namedview
   bordercolor="#666666"
   borderopacity="1.0"
   id="base"
   inkscape:current-layer="Layer_1"
   inkscape:cx="500"
   inkscape:cy="500"
   inkscape:deskcolor="#d1d1d1"
   inkscape:pagecheckerboard="0"
   inkscape:pageopacity="0.0"
   inkscape:showpageshadow="2"
   inkscape:window-height="991"
   inkscape:window-maximized="1"
   inkscape:window-width="1920"
   inkscape:window-x="-9"
   inkscape:window-y="-9"
   inkscape:zoom="0.782"
   pagecolor="#ffffff"
   showgrid="false">
	</sodipodi:namedview>
<rect
   id="rect3"
   x="268.8"
   y="845.9"
   class="st1"
   width="465.7"
   height="110.3" />
<text
   id="text1"
   transform="matrix(1 0 0 1 415.5222 879.9305)"
   class="st2 st3 st4">uni03AC</text>
<text
   id="text2"
   transform="matrix(1 0 0 1 380.5222 937.5305)"
   class="st2 st3 st4">alpha tonos</text>
<g
   id="g5">
	<g
   transform="matrix(1,0,0,1,0,0)"
   id="g1">
	</g>
	<g
   transform="matrix(1,0,0,1,0,0)"
   id="g2">
		<path
   vector-effect="none"
   class="st5"
   d="M239,558c0,124,54,206,182,206c68,0,114-41,164-140l9,39c16,68,42,101,79,101    c44,0,69-24,91-87c-6-7-13-11-25-11c-17,30-30,37-55,37c-23,0-43-29-56-82l-14-58l125-243c-16,5-34,5-49,5s-34-1-48-5l-52,140    c-15-75-47-145-135-145C364,315,239,374,239,558 M323,535c0-115,60-186,127-186c60,0,86,66,109,162l5,21l-16,41    c-37,94-76,157-122,157C352,730,323,643,323,535"
   id="path1" />
	</g>
	<g
   transform="matrix(1,0,0,1,0,0)"
   id="g3">
		<path
   vector-effect="none"
   class="st0"
   d="M438,244c4,0,9-4,12-8l92-122c3.9-5.1,6-13,6-18c0-20-22-35-42-35c-13,0-24,6-28,17    l-52,143c-1.1,3-2,7-2,10C424,238,430,244,438,244"
   id="path2" />
	</g>
	<g
   transform="matrix(1,0,0,1,0,0)"
   id="g4">
	</g>
</g>
</svg>
