<?xml version="1.0" encoding="utf-8"?>
<!-- Generator: Adobe Illustrator 23.0.3, SVG Export Plug-In . SVG Version: 6.00 Build 0)  -->
<svg version="1.1" id="Layer_1" xmlns="http://www.w3.org/2000/svg" xmlns:xlink="http://www.w3.org/1999/xlink" x="0px" y="0px"
	 viewBox="0 0 1000 1000" style="enable-background:new 0 0 1000 1000;" xml:space="preserve">
<style type="text/css">
	.st0{fill:#A91E22;}
	.st1{fill:none;}
	.st2{fill:#FFFFFF;}
	.st3{font-family:'Sabrina-Regular';}
	.st4{font-size:48px;}
	.st5{fill:#676767;}
</style>
<rect x="268.8" y="808.1" class="st0" width="465.7" height="191.9"/>
<defs>
	
	<inkscape:perspective  id="perspective3730"></inkscape:perspective>
</defs>
<sodipodi:namedview  bordercolor="#666666" borderopacity="1.0" id="base" pagecolor="#ffffff" showgrid="false">
	</sodipodi:namedview>
<rect x="268.8" y="845.9" class="st1" width="465.7" height="110.3"/>
<text transform="matrix(1 0 0 1 418.906 879.9305)"><tspan x="0" y="0" class="st2 st3 st4">uni1F01</tspan><tspan x="-43.7" y="57.6" class="st2 st3 st4">alpha dasia</tspan></text>
<g>
	<g transform="matrix(1,0,0,1,0,0)">
		<path vector-effect="none" class="st5" d="M238,558c0,124,54,206,182,206c68,0,114-41,164-140l9,39c16,68,42,101,79,101
			c44,0,69-24,91-87c-6-7-13-11-25-11c-17,30-30,37-55,37c-23,0-43-29-56-82l-14-58l125-243c-16,5-34,5-49,5s-34-1-48-5l-52,140
			c-15-75-47-145-135-145C363,315,238,374,238,558 M322,535c0-115,60-186,127-186c60,0,86,66,109,162l5,21l-16,41
			c-37,94-76,157-122,157C351,730,322,643,322,535"/>
	</g>
	<g transform="matrix(1,0,0,1,0,0)">
		<path vector-effect="none" class="st0" d="M536.5,254c4-4,5-13,5-20c-38.8-7.6-77.2-35.9-77.2-59.3c0-14.2,7.3-20.7,23.6-20.7
			c26.9,0,55.6-11.7,55.6-41c0-24.2-19.3-41-47-41c-38.1,0-66,30.5-66,73C430.5,206.8,477.9,246.3,536.5,254"/>
	</g>
</g>
</svg>
