<?xml version="1.0" encoding="utf-8"?>
<!-- Generator: Adobe Illustrator 23.0.3, SVG Export Plug-In . SVG Version: 6.00 Build 0)  -->
<svg version="1.1"
	 id="Layer_1" inkscape:version="1.3.2 (091e20e, 2023-11-25, custom)" sodipodi:docname="uni1F00.svg" xmlns:inkscape="http://www.inkscape.org/namespaces/inkscape" xmlns:sodipodi="http://sodipodi.sourceforge.net/DTD/sodipodi-0.dtd" xmlns:svg="http://www.w3.org/2000/svg"
	 xmlns="http://www.w3.org/2000/svg" xmlns:xlink="http://www.w3.org/1999/xlink" x="0px" y="0px" viewBox="0 0 1000 1000"
	 style="enable-background:new 0 0 1000 1000;" xml:space="preserve">
<style type="text/css">
	.st0{fill:#A91E22;}
	.st1{fill:none;}
	.st2{fill:#FFFFFF;}
	.st3{font-family:'Sabrina-Regular';}
	.st4{font-size:48px;}
	.st5{display:none;}
	.st6{display:inline;}
	.st7{fill:#676767;}
</style>
<rect id="rect1" x="268.8" y="808.1" class="st0" width="465.7" height="191.9"/>
<defs>
	
	<inkscape:perspective  id="perspective3730"></inkscape:perspective>
</defs>
<sodipodi:namedview  bordercolor="#666666" borderopacity="1.0" id="base" inkscape:current-layer="Layer_1" inkscape:cx="499.36061" inkscape:cy="500" inkscape:deskcolor="#d1d1d1" inkscape:pagecheckerboard="0" inkscape:pageopacity="0.0" inkscape:showpageshadow="2" inkscape:window-height="991" inkscape:window-maximized="1" inkscape:window-width="1920" inkscape:window-x="-9" inkscape:window-y="-9" inkscape:zoom="0.782" pagecolor="#ffffff" showgrid="false">
	</sodipodi:namedview>
<rect id="rect3" x="268.8" y="845.9" class="st1" width="465.7" height="110.3"/>
<text transform="matrix(1 0 0 1 415.5222 879.9305)" class="st2 st3 st4">uni1F70</text>
<text transform="matrix(1 0 0 1 387.5222 937.5305)" class="st2 st3 st4">alpha varia</text>
<g>
	<g transform="matrix(1,0,0,1,0,0)">
	</g>
	<g transform="matrix(1,0,0,1,0,0)" class="st5">
		<path vector-effect="none" class="st6" d="M240,552c0,150,92,212,232,212c65,0,114-10,176-85l4,9c18,41,39,74,77,74
			c46,0,80-37,104-78c-8-12-17-18-27-20c-17,22-45,26-62,26c-11,0-42-17-53-59l-2-8l156-312c-29,3-63,5-77,5c-12,0-25-1-57-6
			l-66,132c-24-83-60-132-164-132C387,310,240,380,240,552 M380,528c0-59,21-176,101-176c47,0,87,58,111,151l9,34l-20,49
			c-32,79-60,136-101,136C404,722,380,608,380,528"/>
	</g>
	<g transform="matrix(1,0,0,1,0,0)" class="st5">
		<path vector-effect="none" class="st6" d="M501,244c7,0,16-6,16-13c0-6-2-12-4-18L460,70c-5-12-24-16-39-16c-25,0-42,12-42,32
			c0,9,2,17,7,23l94,125C485,241,491,244,501,244"/>
	</g>
	<g transform="matrix(1,0,0,1,0,0)">
		<path vector-effect="none" class="st7" d="M238,558c0,124,54,206,182,206c68,0,114-41,164-140l9,39c16,68,42,101,79,101
			c44,0,69-24,91-87c-6-7-13-11-25-11c-17,30-30,37-55,37c-23,0-43-29-56-82l-14-58l125-243c-16,5-34,5-49,5s-34-1-48-5l-52,140
			c-15-75-47-145-135-145C363,315,238,374,238,558 M322,535c0-115,60-186,127-186c60,0,86,66,109,162l5,21l-16,41
			c-37,94-76,157-122,157C351,730,322,643,322,535"/>
	</g>
	<g transform="matrix(1,0,0,1,0,0)">
		<path vector-effect="none" class="st0" d="M461,244c6,0,12-5,12-10c0-6-1-10-2-13L416,77c-4-11-16-16-27-16c-22,0-40,14-40,29
			c0,10,4,18,7,22l97,129C455,243,458,244,461,244"/>
	</g>
	<g transform="matrix(1,0,0,1,0,0)">
	</g>
</g>
</svg>
