<?xml version="1.0" encoding="utf-8"?>
<!-- Generator: Adobe Illustrator 23.0.3, SVG Export Plug-In . SVG Version: 6.00 Build 0)  -->
<svg version="1.1" id="Layer_1" xmlns="http://www.w3.org/2000/svg" xmlns:xlink="http://www.w3.org/1999/xlink" x="0px" y="0px"
	 viewBox="0 0 1000 1000" style="enable-background:new 0 0 1000 1000;" xml:space="preserve">
<style type="text/css">
	.st0{fill:#A91E22;}
	.st1{fill:#676767;}
	.st2{fill:none;}
	.st3{fill:#FFFFFF;}
	.st4{font-family:'Sabrina-Regular';}
	.st5{font-size:48px;}
</style>
<rect x="268.8" y="808.1" class="st0" width="465.7" height="191.9"/>
<g>
	<g transform="matrix(1,0,0,1,0,0)">
		<path vector-effect="none" class="st1" d="M238,558c0,124,54,206,182,206c68,0,114-41,164-140l9,39c16,68,42,101,79,101
			c44,0,69-24,91-87c-6-7-13-11-25-11c-17,30-30,37-55,37c-23,0-43-29-56-82l-14-58l125-243c-16,5-34,5-49,5s-34-1-48-5l-52,140
			c-15-75-47-145-135-145C363,315,238,374,238,558 M322,535c0-115,60-186,127-186c60,0,86,66,109,162l5,21l-16,41
			c-37,94-76,157-122,157C351,730,322,643,322,535"/>
	</g>
	<g transform="matrix(1,0,0,1,0,0)">
		<path vector-effect="none" class="st0" d="M437.5,254c58.6-7.7,106-47.2,106-109c0-42.5-27.9-73-66-73c-27.7,0-47,16.7-47,41
			c0,29.3,28.7,41,55.6,41c16.2,0,23.6,6.4,23.6,20.7c0,23.4-38.4,51.7-77.2,59.3C432.5,241,433.5,250,437.5,254"/>
	</g>
</g>
<defs>
	
	<inkscape:perspective  id="perspective3730"></inkscape:perspective>
</defs>
<sodipodi:namedview  bordercolor="#666666" borderopacity="1.0" id="base" pagecolor="#ffffff" showgrid="false">
	</sodipodi:namedview>
<rect x="268.8" y="845.9" class="st2" width="465.7" height="110.3"/>
<text transform="matrix(1 0 0 1 415.5222 879.9305)"><tspan x="0" y="0" class="st3 st4 st5">uni1F00</tspan><tspan x="-28" y="57.6" class="st3 st4 st5">alpha psili</tspan></text>
</svg>
